<svg width="122" height="125" viewBox="0 0 122 125" fill="none" xmlns="http://www.w3.org/2000/svg">
<path d="M63.9191 0.630938C62.9839 0.214653 61.977 0 60.9596 0C59.9421 0 58.9353 0.214653 58.0001 0.630938L5.42044 24.0309C4.06546 24.6303 2.91008 25.6301 2.09798 26.906C1.28588 28.1819 0.852905 29.6776 0.852905 31.2069C0.852905 32.7363 1.28588 34.232 2.09798 35.5078C2.91008 36.7837 4.06546 37.7835 5.42044 38.3829L25.2805 47.2047C26.0177 46.3389 26.9311 45.6541 27.9546 45.2001L58.0001 31.8309C58.9093 31.4101 59.89 31.1812 60.8851 31.1574C61.8803 31.1336 62.87 31.3155 63.7969 31.6924C64.7238 32.0693 65.5693 32.6338 66.2842 33.353C66.9992 34.0722 67.5694 34.9318 67.9616 35.8818C68.3538 36.8319 68.5603 37.8534 68.569 38.887C68.5778 39.9206 68.3885 40.9457 68.0124 41.9028C67.6363 42.8598 67.0807 43.7296 66.378 44.4617C65.6753 45.1938 64.8394 45.7736 63.9191 46.1673L43.4355 55.2933L58.0076 61.7751C58.9417 62.1903 59.9472 62.4044 60.9633 62.4044C61.9794 62.4044 62.9849 62.1903 63.9191 61.7751L116.499 38.3751C117.849 37.7735 119 36.7737 119.809 35.4996C120.618 34.2254 121.049 32.7329 121.049 31.2069C121.049 29.6809 120.618 28.1884 119.809 26.9143C119 25.6402 117.849 24.6404 116.499 24.0387L63.9191 0.638739V0.630938ZM10.7084 57.7035L23.4027 63.3429V95.3385C20.8019 94.7244 18.1683 94.2712 15.5157 93.9813C13.8042 93.7945 12.2064 93.0031 10.9895 91.7395C9.7726 90.4758 9.01048 88.8166 8.8306 87.0393C7.84278 77.2185 8.47786 67.2945 10.7084 57.6957V57.7035ZM55.7016 113.676C50.624 108.503 44.794 104.191 38.4254 100.9V70.0353L52.0811 76.1193C54.8866 77.3682 57.9072 78.0122 60.9596 78.0122C64.012 78.0122 67.0325 77.3682 69.838 76.1193L111.211 57.7035C113.454 67.3002 114.09 77.2265 113.089 87.0471C112.909 88.8244 112.147 90.4837 110.93 91.7473C109.713 93.0109 108.115 93.8023 106.403 93.9891C91.2494 95.6429 77.083 102.583 66.2175 113.676C64.8134 115.106 62.9257 115.906 60.9596 115.906C58.9935 115.906 57.1057 115.106 55.7016 113.676ZM30.9141 124.807C32.9062 124.807 34.8167 123.985 36.2254 122.522C37.6341 121.06 38.4254 119.076 38.4254 117.007V100.9C33.6482 98.4354 28.605 96.571 23.4027 95.3463V117.007C23.4027 119.076 24.1941 121.06 25.6027 122.522C27.0114 123.985 28.9219 124.807 30.9141 124.807Z" fill="#503AE7"/>
</svg>
