<svg width="110" height="111" viewBox="0 0 110 111" fill="none" xmlns="http://www.w3.org/2000/svg">
<path d="M16 0.97998C11.8626 0.97998 7.89473 2.62355 4.96916 5.54911C2.04359 8.47468 0.400024 12.4426 0.400024 16.58V32.18C0.400024 36.3174 2.04359 40.2853 4.96916 43.2108C7.89473 46.1364 11.8626 47.78 16 47.78H31.6C35.7374 47.78 39.7053 46.1364 42.6309 43.2108C45.5565 40.2853 47.2 36.3174 47.2 32.18V16.58C47.2 12.4426 45.5565 8.47468 42.6309 5.54911C39.7053 2.62355 35.7374 0.97998 31.6 0.97998H16ZM16 63.38C11.8626 63.38 7.89473 65.0236 4.96916 67.9491C2.04359 70.8747 0.400024 74.8426 0.400024 78.98V94.58C0.400024 98.7174 2.04359 102.685 4.96916 105.611C7.89473 108.536 11.8626 110.18 16 110.18H31.6C35.7374 110.18 39.7053 108.536 42.6309 105.611C45.5565 102.685 47.2 98.7174 47.2 94.58V78.98C47.2 74.8426 45.5565 70.8747 42.6309 67.9491C39.7053 65.0236 35.7374 63.38 31.6 63.38H16ZM62.8 16.58C62.8 12.4426 64.4436 8.47468 67.3692 5.54911C70.2947 2.62355 74.2626 0.97998 78.4 0.97998H94C98.1374 0.97998 102.105 2.62355 105.031 5.54911C107.956 8.47468 109.6 12.4426 109.6 16.58V32.18C109.6 36.3174 107.956 40.2853 105.031 43.2108C102.105 46.1364 98.1374 47.78 94 47.78H78.4C74.2626 47.78 70.2947 46.1364 67.3692 43.2108C64.4436 40.2853 62.8 36.3174 62.8 32.18V16.58ZM86.2 63.38C88.2687 63.38 90.2527 64.2018 91.7155 65.6646C93.1782 67.1273 94 69.1113 94 71.18V78.98H101.8C103.869 78.98 105.853 79.8018 107.315 81.2645C108.778 82.7273 109.6 84.7113 109.6 86.78C109.6 88.8487 108.778 90.8326 107.315 92.2954C105.853 93.7582 103.869 94.58 101.8 94.58H94V102.38C94 104.449 93.1782 106.433 91.7155 107.895C90.2527 109.358 88.2687 110.18 86.2 110.18C84.1313 110.18 82.1474 109.358 80.6846 107.895C79.2218 106.433 78.4 104.449 78.4 102.38V94.58H70.6C68.5313 94.58 66.5474 93.7582 65.0846 92.2954C63.6218 90.8326 62.8 88.8487 62.8 86.78C62.8 84.7113 63.6218 82.7273 65.0846 81.2645C66.5474 79.8018 68.5313 78.98 70.6 78.98H78.4V71.18C78.4 69.1113 79.2218 67.1273 80.6846 65.6646C82.1474 64.2018 84.1313 63.38 86.2 63.38Z" fill="#503AE7"/>
</svg>
