<svg width="17" height="17" viewBox="0 0 17 17" fill="none" xmlns="http://www.w3.org/2000/svg">
<path d="M7.16671 3.16664H3.00004C2.55801 3.16664 2.13409 3.34223 1.82153 3.65479C1.50897 3.96736 1.33337 4.39128 1.33337 4.83331V14C1.33337 14.442 1.50897 14.8659 1.82153 15.1785C2.13409 15.491 2.55801 15.6666 3.00004 15.6666H12.1667C12.6087 15.6666 13.0327 15.491 13.3452 15.1785C13.6578 14.8659 13.8334 14.442 13.8334 14V9.83331M12.655 1.98831C12.8088 1.82912 12.9927 1.70215 13.196 1.6148C13.3994 1.52746 13.6181 1.48148 13.8394 1.47956C14.0607 1.47763 14.2801 1.5198 14.485 1.6036C14.6898 1.6874 14.8759 1.81116 15.0324 1.96765C15.1889 2.12414 15.3126 2.31022 15.3964 2.51505C15.4802 2.71988 15.5224 2.93934 15.5205 3.16064C15.5185 3.38194 15.4726 3.60064 15.3852 3.80398C15.2979 4.00732 15.1709 4.19123 15.0117 4.34497L7.85671 11.5H5.50004V9.14331L12.655 1.98831Z" stroke="#AA9BFF" stroke-width="1.4" stroke-linecap="round" stroke-linejoin="round"/>
</svg>
