<svg width="13" height="12" viewBox="0 0 13 12" fill="none" xmlns="http://www.w3.org/2000/svg">
<path fill-rule="evenodd" clip-rule="evenodd" d="M1.2807 0.305288C1.46823 0.117817 1.72254 0.0125018 1.9877 0.0125018C2.25287 0.0125018 2.50717 0.117817 2.6947 0.305288L6.9877 4.59829L11.2807 0.305288C11.3729 0.209778 11.4833 0.133596 11.6053 0.0811869C11.7273 0.0287779 11.8585 0.00119157 11.9913 3.77571e-05C12.1241 -0.00111606 12.2558 0.0241854 12.3787 0.0744663C12.5016 0.124747 12.6132 0.199 12.7071 0.292893C12.801 0.386786 12.8752 0.498438 12.9255 0.621334C12.9758 0.744231 13.0011 0.87591 13 1.00869C12.9988 1.14147 12.9712 1.27269 12.9188 1.39469C12.8664 1.5167 12.7902 1.62704 12.6947 1.71929L8.4017 6.01229L12.6947 10.3053C12.8769 10.4939 12.9777 10.7465 12.9754 11.0087C12.9731 11.2709 12.8679 11.5217 12.6825 11.7071C12.4971 11.8925 12.2463 11.9977 11.9841 12C11.7219 12.0022 11.4693 11.9014 11.2807 11.7193L6.9877 7.42629L2.6947 11.7193C2.5061 11.9014 2.2535 12.0022 1.9913 12C1.7291 11.9977 1.47829 11.8925 1.29288 11.7071C1.10747 11.5217 1.00231 11.2709 1.00003 11.0087C0.997749 10.7465 1.09854 10.4939 1.2807 10.3053L5.5737 6.01229L1.2807 1.71929C1.09323 1.53176 0.987915 1.27745 0.987915 1.01229C0.987915 0.747124 1.09323 0.492816 1.2807 0.305288Z" fill="#232325"/>
</svg>
