<svg width="21" height="21" viewBox="0 0 21 21" fill="none" xmlns="http://www.w3.org/2000/svg">
<path fill-rule="evenodd" clip-rule="evenodd" d="M10.3079 0.569092C7.85996 0.570362 5.49228 1.43737 3.62825 3.0151C1.76421 4.59282 0.525362 6.77837 0.133215 9.18095C-0.258932 11.5835 0.221191 14.0465 1.48774 16.1294C2.7543 18.2123 4.72468 19.7793 7.04658 20.5503C7.55882 20.6453 7.75177 20.3279 7.75177 20.0579C7.75177 19.788 7.74152 19.0053 7.73811 18.1496C4.86952 18.7693 4.26337 16.9391 4.26337 16.9391C3.79551 15.7506 3.11935 15.4382 3.11935 15.4382C2.18364 14.8033 3.18936 14.8152 3.18936 14.8152C4.22581 14.8882 4.7705 15.8729 4.7705 15.8729C5.68913 17.4399 7.18317 16.9866 7.77055 16.7218C7.86276 16.0579 8.13084 15.6063 8.42623 15.35C6.13478 15.0919 3.72721 14.2125 3.72721 10.2838C3.71301 9.26491 4.09326 8.27959 4.78928 7.53169C4.68341 7.27363 4.32996 6.23119 4.89001 4.81524C4.89001 4.81524 5.75572 4.5402 7.72617 5.86617C9.41629 5.4066 11.1995 5.4066 12.8896 5.86617C14.8584 4.5402 15.7223 4.81524 15.7223 4.81524C16.2841 6.22779 15.9307 7.27023 15.8248 7.53169C16.523 8.27971 16.9041 9.26675 16.8886 10.2872C16.8886 14.2243 14.4759 15.0919 12.181 15.3449C12.5498 15.6641 12.8794 16.2871 12.8794 17.2447C12.8794 18.6165 12.8674 19.7201 12.8674 20.0579C12.8674 20.3313 13.0535 20.6504 13.576 20.5503C15.8982 19.7792 17.8688 18.2119 19.1353 16.1286C20.4018 14.0454 20.8817 11.5821 20.4891 9.17928C20.0965 6.77647 18.8571 4.5909 16.9924 3.01345C15.1278 1.436 12.7595 0.569557 10.3113 0.569092H10.3079Z" fill="#AFB0B9"/>
<path d="M3.90114 15.2906C3.87894 15.3415 3.79698 15.3568 3.73039 15.3211C3.6638 15.2855 3.61428 15.2193 3.63819 15.1666C3.66209 15.114 3.74234 15.1004 3.80894 15.1361C3.87553 15.1717 3.92675 15.2397 3.90114 15.2906Z" fill="#AFB0B9"/>
<path d="M4.31948 15.7542C4.28411 15.7719 4.24366 15.7768 4.20504 15.7682C4.16641 15.7595 4.13202 15.7377 4.10775 15.7066C4.04116 15.6353 4.02749 15.5369 4.07871 15.4927C4.12994 15.4486 4.22215 15.4689 4.28874 15.5402C4.35533 15.6116 4.3707 15.71 4.31948 15.7542Z" fill="#AFB0B9"/>
<path d="M4.72589 16.3433C4.66271 16.3874 4.55513 16.3433 4.49537 16.255C4.47884 16.2392 4.4657 16.2202 4.45673 16.1992C4.44775 16.1782 4.44312 16.1556 4.44312 16.1328C4.44312 16.1099 4.44775 16.0873 4.45673 16.0663C4.4657 16.0453 4.47884 16.0264 4.49537 16.0105C4.55855 15.9681 4.66612 16.0105 4.72589 16.0971C4.78565 16.1837 4.78736 16.2991 4.72589 16.3433Z" fill="#AFB0B9"/>
<path d="M5.27743 16.9135C5.22108 16.9764 5.10668 16.9594 5.01277 16.8745C4.91886 16.7896 4.89665 16.6742 4.953 16.613C5.00935 16.5519 5.12375 16.5689 5.22108 16.6521C5.31841 16.7353 5.33719 16.8524 5.27743 16.9135Z" fill="#AFB0B9"/>
<path d="M6.05093 17.2465C6.02532 17.3263 5.90921 17.362 5.7931 17.328C5.67699 17.2941 5.60015 17.199 5.62235 17.1175C5.64455 17.036 5.76237 16.9987 5.88018 17.036C5.998 17.0734 6.07313 17.1633 6.05093 17.2465Z" fill="#AFB0B9"/>
<path d="M6.89438 17.3042C6.89438 17.3874 6.79877 17.4587 6.67583 17.4604C6.55289 17.4621 6.45215 17.3942 6.45215 17.311C6.45215 17.2278 6.54776 17.1565 6.6707 17.1548C6.79364 17.1531 6.89438 17.2193 6.89438 17.3042Z" fill="#AFB0B9"/>
<path d="M7.67982 17.1734C7.69518 17.2565 7.60981 17.3431 7.48687 17.3635C7.36393 17.3839 7.25636 17.3346 7.24099 17.2532C7.22562 17.1717 7.31441 17.0834 7.43394 17.0613C7.55346 17.0392 7.66445 17.0902 7.67982 17.1734Z" fill="#AFB0B9"/>
</svg>
