<svg width="21" height="20" viewBox="0 0 21 20" fill="none" xmlns="http://www.w3.org/2000/svg">
<path fill-rule="evenodd" clip-rule="evenodd" d="M10.3079 0C7.85996 0.0012701 5.49228 0.868282 3.62825 2.446C1.76421 4.02373 0.525362 6.20928 0.133215 8.61186C-0.258932 11.0144 0.221191 13.4774 1.48774 15.5603C2.7543 17.6432 4.72468 19.2102 7.04658 19.9812C7.55882 20.0762 7.75177 19.7588 7.75177 19.4888C7.75177 19.2189 7.74152 18.4362 7.73811 17.5805C4.86952 18.2002 4.26337 16.37 4.26337 16.37C3.79551 15.1816 3.11935 14.8692 3.11935 14.8692C2.18364 14.2342 3.18936 14.2461 3.18936 14.2461C4.22581 14.3191 4.7705 15.3038 4.7705 15.3038C5.68913 16.8708 7.18317 16.4175 7.77055 16.1527C7.86276 15.4888 8.13084 15.0372 8.42623 14.7809C6.13478 14.5228 3.72721 13.6434 3.72721 9.7147C3.71301 8.69582 4.09326 7.7105 4.78928 6.9626C4.68341 6.70453 4.32996 5.6621 4.89001 4.24615C4.89001 4.24615 5.75572 3.97111 7.72617 5.29708C9.41629 4.83751 11.1995 4.83751 12.8896 5.29708C14.8584 3.97111 15.7223 4.24615 15.7223 4.24615C16.2841 5.6587 15.9307 6.70114 15.8248 6.9626C16.523 7.71062 16.9041 8.69766 16.8886 9.71809C16.8886 13.6552 14.4759 14.5228 12.181 14.7758C12.5498 15.095 12.8794 15.718 12.8794 16.6756C12.8794 18.0474 12.8674 19.151 12.8674 19.4888C12.8674 19.7622 13.0535 20.0813 13.576 19.9812C15.8982 19.2101 17.8688 17.6428 19.1353 15.5595C20.4018 13.4763 20.8817 11.013 20.4891 8.61018C20.0965 6.20738 18.8571 4.02181 16.9924 2.44436C15.1278 0.866906 12.7595 0.000465046 10.3113 0H10.3079Z" fill="#1AD993"/>
<path d="M3.90115 14.7215C3.87895 14.7724 3.797 14.7877 3.7304 14.7521C3.66381 14.7164 3.6143 14.6502 3.6382 14.5976C3.66211 14.5449 3.74236 14.5313 3.80895 14.567C3.87554 14.6026 3.92676 14.6706 3.90115 14.7215Z" fill="#1AD993"/>
<path d="M4.31949 15.185C4.28413 15.2027 4.24367 15.2076 4.20505 15.1989C4.16643 15.1903 4.13204 15.1685 4.10776 15.1374C4.04117 15.0661 4.0275 14.9676 4.07873 14.9235C4.12995 14.8794 4.22217 14.8997 4.28876 14.971C4.35535 15.0423 4.37072 15.1408 4.31949 15.185Z" fill="#1AD993"/>
<path d="M4.72592 15.7742C4.66274 15.8183 4.55516 15.7742 4.4954 15.6859C4.47887 15.6701 4.46573 15.6511 4.45676 15.6301C4.44778 15.6091 4.44315 15.5865 4.44315 15.5637C4.44315 15.5408 4.44778 15.5183 4.45676 15.4973C4.46573 15.4762 4.47887 15.4573 4.4954 15.4414C4.55858 15.399 4.66616 15.4414 4.72592 15.528C4.78568 15.6146 4.78739 15.73 4.72592 15.7742V15.7742Z" fill="#1AD993"/>
<path d="M5.27738 16.3446C5.22104 16.4074 5.10664 16.3904 5.01272 16.3055C4.91881 16.2206 4.89661 16.1052 4.95296 16.0441C5.0093 15.9829 5.12371 15.9999 5.22103 16.0831C5.31836 16.1663 5.33715 16.2835 5.27738 16.3446V16.3446Z" fill="#1AD993"/>
<path d="M6.05089 16.6773C6.02527 16.7571 5.90916 16.7928 5.79305 16.7588C5.67694 16.7249 5.60011 16.6298 5.6223 16.5483C5.6445 16.4668 5.76232 16.4294 5.88014 16.4668C5.99795 16.5041 6.07308 16.5941 6.05089 16.6773Z" fill="#1AD993"/>
<path d="M6.8944 16.7351C6.8944 16.8183 6.79878 16.8896 6.67585 16.8913C6.55291 16.893 6.45216 16.8251 6.45216 16.7419C6.45216 16.6587 6.54778 16.5874 6.67072 16.5857C6.79366 16.584 6.8944 16.6502 6.8944 16.7351Z" fill="#1AD993"/>
<path d="M7.67988 16.6043C7.69524 16.6875 7.60987 16.774 7.48693 16.7944C7.36399 16.8148 7.25642 16.7656 7.24105 16.6841C7.22568 16.6026 7.31447 16.5143 7.434 16.4922C7.55352 16.4701 7.66451 16.5211 7.67988 16.6043Z" fill="#1AD993"/>
</svg>
