<svg width="112" height="109" viewBox="0 0 112 109" fill="none" xmlns="http://www.w3.org/2000/svg">
<path opacity="0.5" fill-rule="evenodd" clip-rule="evenodd" d="M55.9815 0C42.6869 0.00690334 29.8282 4.71937 19.7048 13.2948C9.58132 21.8701 2.8532 33.7492 0.723481 46.808C-1.40624 59.8667 1.20128 73.2535 8.07984 84.5747C14.9584 95.8958 25.6594 104.413 38.2695 108.604C41.0515 109.12 42.0994 107.395 42.0994 105.927C42.0994 104.46 42.0437 100.206 42.0252 95.5552C26.4461 98.9234 23.1541 88.9757 23.1541 88.9757C20.6132 82.5162 16.941 80.8182 16.941 80.8182C11.8592 77.367 17.3212 77.4316 17.3212 77.4316C22.9501 77.8284 25.9083 83.1806 25.9083 83.1806C30.8973 91.698 39.0113 89.2341 42.2014 87.7946C42.7021 84.1864 44.158 81.7318 45.7623 80.3384C33.3176 78.9357 20.2422 74.1557 20.2422 52.8022C20.1651 47.2643 22.2302 41.9088 26.0103 37.8438C25.4353 36.4411 23.5157 30.7752 26.5573 23.0791C26.5573 23.0791 31.2589 21.5841 41.9603 28.7912C51.1392 26.2933 60.8237 26.2933 70.0027 28.7912C80.6948 21.5841 85.387 23.0791 85.387 23.0791C88.4379 30.7567 86.5184 36.4227 85.9434 37.8438C89.7354 41.9095 91.8049 47.2743 91.7207 52.8207C91.7207 74.2203 78.6175 78.9358 66.1542 80.3107C68.1573 82.0456 69.947 85.4322 69.947 90.6368C69.947 98.0929 69.8821 104.091 69.8821 105.927C69.8821 107.413 70.8929 109.148 73.7305 108.604C86.342 104.413 97.0441 95.8938 103.923 84.5707C110.801 73.2476 113.407 59.8588 111.275 46.7989C109.143 33.7389 102.411 21.8597 92.2846 13.2858C82.1578 4.71189 69.2962 0.00252766 56 0H55.9815Z" fill="white"/>
</svg>
