<svg width="33" height="32" viewBox="0 0 33 32" fill="none" xmlns="http://www.w3.org/2000/svg">
<path fill-rule="evenodd" clip-rule="evenodd" d="M16.3079 6C13.86 6.00127 11.4923 6.86828 9.62825 8.446C7.76421 10.0237 6.52536 12.2093 6.13321 14.6119C5.74107 17.0144 6.22119 19.4774 7.48774 21.5603C8.7543 23.6432 10.7247 25.2102 13.0466 25.9812C13.5588 26.0762 13.7518 25.7588 13.7518 25.4888C13.7518 25.2189 13.7415 24.4362 13.7381 23.5805C10.8695 24.2002 10.2634 22.37 10.2634 22.37C9.79551 21.1816 9.11935 20.8692 9.11935 20.8692C8.18364 20.2342 9.18936 20.2461 9.18936 20.2461C10.2258 20.3191 10.7705 21.3038 10.7705 21.3038C11.6891 22.8708 13.1832 22.4175 13.7706 22.1527C13.8628 21.4888 14.1308 21.0372 14.4262 20.7809C12.1348 20.5228 9.72721 19.6434 9.72721 15.7147C9.71301 14.6958 10.0933 13.7105 10.7893 12.9626C10.6834 12.7045 10.33 11.6621 10.89 10.2461C10.89 10.2461 11.7557 9.97111 13.7262 11.2971C15.4163 10.8375 17.1995 10.8375 18.8896 11.2971C20.8584 9.97111 21.7223 10.2461 21.7223 10.2461C22.2841 11.6587 21.9307 12.7011 21.8248 12.9626C22.523 13.7106 22.9041 14.6977 22.8886 15.7181C22.8886 19.6552 20.4759 20.5228 18.181 20.7758C18.5498 21.095 18.8794 21.718 18.8794 22.6756C18.8794 24.0474 18.8674 25.151 18.8674 25.4888C18.8674 25.7622 19.0535 26.0813 19.576 25.9812C21.8982 25.2101 23.8688 23.6428 25.1353 21.5595C26.4018 19.4763 26.8817 17.013 26.4891 14.6102C26.0965 12.2074 24.8571 10.0218 22.9924 8.44436C21.1278 6.86691 18.7595 6.00047 16.3113 6H16.3079Z" fill="#1AD993"/>
<path d="M9.90115 20.7215C9.87895 20.7724 9.797 20.7877 9.7304 20.7521C9.66381 20.7164 9.6143 20.6502 9.6382 20.5976C9.66211 20.5449 9.74236 20.5313 9.80895 20.567C9.87554 20.6026 9.92676 20.6706 9.90115 20.7215Z" fill="#1AD993"/>
<path d="M10.3195 21.185C10.2841 21.2027 10.2437 21.2076 10.2051 21.1989C10.1664 21.1903 10.132 21.1685 10.1078 21.1374C10.0412 21.0661 10.0275 20.9676 10.0787 20.9235C10.13 20.8794 10.2222 20.8997 10.2888 20.971C10.3553 21.0423 10.3707 21.1408 10.3195 21.185Z" fill="#1AD993"/>
<path d="M10.7259 21.7742C10.6627 21.8183 10.5552 21.7742 10.4954 21.6859C10.4789 21.6701 10.4657 21.6511 10.4568 21.6301C10.4478 21.6091 10.4431 21.5865 10.4431 21.5637C10.4431 21.5408 10.4478 21.5183 10.4568 21.4973C10.4657 21.4762 10.4789 21.4573 10.4954 21.4414C10.5586 21.399 10.6662 21.4414 10.7259 21.528C10.7857 21.6146 10.7874 21.73 10.7259 21.7742Z" fill="#1AD993"/>
<path d="M11.2774 22.3446C11.221 22.4074 11.1066 22.3904 11.0127 22.3055C10.9188 22.2206 10.8966 22.1052 10.953 22.0441C11.0093 21.9829 11.1237 21.9999 11.221 22.0831C11.3184 22.1663 11.3371 22.2835 11.2774 22.3446Z" fill="#1AD993"/>
<path d="M12.0509 22.6773C12.0253 22.7571 11.9092 22.7928 11.7931 22.7588C11.6769 22.7249 11.6001 22.6298 11.6223 22.5483C11.6445 22.4668 11.7623 22.4294 11.8801 22.4668C11.998 22.5041 12.0731 22.5941 12.0509 22.6773Z" fill="#1AD993"/>
<path d="M12.8944 22.7351C12.8944 22.8183 12.7988 22.8896 12.6758 22.8913C12.5529 22.893 12.4522 22.8251 12.4522 22.7419C12.4522 22.6587 12.5478 22.5874 12.6707 22.5857C12.7937 22.584 12.8944 22.6502 12.8944 22.7351Z" fill="#1AD993"/>
<path d="M13.6799 22.6043C13.6952 22.6875 13.6099 22.774 13.4869 22.7944C13.364 22.8148 13.2564 22.7656 13.2411 22.6841C13.2257 22.6026 13.3145 22.5143 13.434 22.4922C13.5535 22.4701 13.6645 22.5211 13.6799 22.6043Z" fill="#1AD993"/>
</svg>
