<svg width="52" height="36" viewBox="0 0 52 36" fill="none" xmlns="http://www.w3.org/2000/svg">
<path d="M3.23037 6.34428C5.01446 6.34428 6.46074 4.92407 6.46074 3.17214C6.46074 1.4202 5.01446 0 3.23037 0C1.44629 0 0 1.4202 0 3.17214C0 4.92407 1.44629 6.34428 3.23037 6.34428Z" fill="#832BC1"/>
<path d="M3.23037 9.80507C5.01446 9.80507 6.46074 8.38487 6.46074 6.63294C6.46074 4.881 5.01446 3.4608 3.23037 3.4608C1.44629 3.4608 0 4.881 0 6.63294C0 8.38487 1.44629 9.80507 3.23037 9.80507Z" fill="#832BC1"/>
<path d="M6.46074 3.1727H0V6.63322H6.46074V3.1727Z" fill="#832BC1"/>
<path d="M48.4546 9.80507C50.2388 9.80507 51.6849 8.38487 51.6849 6.63294C51.6849 4.881 50.2388 3.4608 48.4546 3.4608C46.6706 3.4608 45.2243 4.881 45.2243 6.63294C45.2243 8.38487 46.6706 9.80507 48.4546 9.80507Z" fill="#ABFFE0"/>
<path d="M48.4546 6.34428C50.2388 6.34428 51.6849 4.92407 51.6849 3.17214C51.6849 1.4202 50.2388 0 48.4546 0C46.6706 0 45.2243 1.4202 45.2243 3.17214C45.2243 4.92407 46.6706 6.34428 48.4546 6.34428Z" fill="#ABFFE0"/>
<path d="M45.2243 6.63361H51.6849V3.17309H45.2243V6.63361Z" fill="#ABFFE0"/>
<path d="M14.3885 19.0328C16.1726 19.0328 17.6189 17.6126 17.6189 15.8606C17.6189 14.1087 16.1726 12.6885 14.3885 12.6885C12.6044 12.6885 11.1582 14.1087 11.1582 15.8606C11.1582 17.6126 12.6044 19.0328 14.3885 19.0328Z" fill="#503AE7"/>
<path d="M14.3885 22.4935C16.1726 22.4935 17.6189 21.0733 17.6189 19.3214C17.6189 17.5695 16.1726 16.1491 14.3885 16.1491C12.6044 16.1491 11.1582 17.5695 11.1582 19.3214C11.1582 21.0733 12.6044 22.4935 14.3885 22.4935Z" fill="#503AE7"/>
<path d="M17.6189 15.8612H11.1582V19.3217H17.6189V15.8612Z" fill="#503AE7"/>
<path d="M14.3885 6.34428C16.1726 6.34428 17.6189 4.92408 17.6189 3.17214C17.6189 1.4202 16.1726 0 14.3885 0C12.6044 0 11.1582 1.4202 11.1582 3.17214C11.1582 4.92408 12.6044 6.34428 14.3885 6.34428Z" fill="#503AE7"/>
<path d="M14.3885 9.80503C16.1726 9.80503 17.6189 8.38482 17.6189 6.63288C17.6189 4.88095 16.1726 3.4606 14.3885 3.4606C12.6044 3.4606 11.1582 4.88095 11.1582 6.63288C11.1582 8.38482 12.6044 9.80503 14.3885 9.80503Z" fill="#503AE7"/>
<path d="M17.6189 3.1727H11.1582V6.63322H17.6189V3.1727Z" fill="#503AE7"/>
<path d="M37.2953 9.80489C39.0794 9.80489 40.5257 8.38469 40.5257 6.63276C40.5257 4.88082 39.0794 3.4606 37.2953 3.4606C35.5113 3.4606 34.065 4.88082 34.065 6.63276C34.065 8.38469 35.5113 9.80489 37.2953 9.80489Z" fill="#1AD993"/>
<path d="M37.2953 6.34422C39.0793 6.34422 40.5256 4.92402 40.5256 3.17214C40.5256 1.42022 39.0793 0 37.2953 0C35.5113 0 34.0649 1.42022 34.0649 3.17214C34.0649 4.92402 35.5113 6.34422 37.2953 6.34422Z" fill="#1AD993"/>
<path d="M34.0649 7.20938H40.5258V3.74889H34.0649V7.20938Z" fill="#1AD993"/>
<path d="M37.2953 22.4934C39.0794 22.4934 40.5257 21.0732 40.5257 19.3213C40.5257 17.5693 39.0794 16.1491 37.2953 16.1491C35.5113 16.1491 34.065 17.5693 34.065 19.3213C34.065 21.0732 35.5113 22.4934 37.2953 22.4934Z" fill="#1AD993"/>
<path d="M37.2953 19.0327C39.0793 19.0327 40.5256 17.6125 40.5256 15.8606C40.5256 14.1087 39.0793 12.6885 37.2953 12.6885C35.5113 12.6885 34.0649 14.1087 34.0649 15.8606C34.0649 17.6125 35.5113 19.0327 37.2953 19.0327Z" fill="#1AD993"/>
<path d="M34.0649 19.8979H40.5258V16.4374H34.0649V19.8979Z" fill="#1AD993"/>
<path d="M37.2953 35.1819C39.0794 35.1819 40.5257 33.7617 40.5257 32.0098C40.5257 30.2579 39.0794 28.8376 37.2953 28.8376C35.5113 28.8376 34.065 30.2579 34.065 32.0098C34.065 33.7617 35.5113 35.1819 37.2953 35.1819Z" fill="#1AD993"/>
<path d="M37.2953 31.7212C39.0793 31.7212 40.5256 30.301 40.5256 28.5492C40.5256 26.7972 39.0793 25.377 37.2953 25.377C35.5113 25.377 34.0649 26.7972 34.0649 28.5492C34.0649 30.301 35.5113 31.7212 37.2953 31.7212Z" fill="#1AD993"/>
<path d="M34.0649 32.5864H40.5258V29.1259H34.0649V32.5864Z" fill="#1AD993"/>
<path d="M25.8413 9.80488C27.6255 9.80488 29.0718 8.38468 29.0718 6.63274C29.0718 4.88082 27.6255 3.4606 25.8413 3.4606C24.0573 3.4606 22.611 4.88082 22.611 6.63274C22.611 8.38468 24.0573 9.80488 25.8413 9.80488Z" fill="#096CFE"/>
<path d="M25.8413 6.34428C27.6255 6.34428 29.0718 4.92406 29.0718 3.17214C29.0718 1.42022 27.6255 0 25.8413 0C24.0573 0 22.611 1.42022 22.611 3.17214C22.611 4.92406 24.0573 6.34428 25.8413 6.34428Z" fill="#096CFE"/>
<path d="M22.6125 6.63246H29.0733V3.17193H22.6125V6.63246Z" fill="#096CFE"/>
<path d="M25.8413 22.4926C27.6255 22.4926 29.0718 21.0724 29.0718 19.3205C29.0718 17.5685 27.6255 16.1483 25.8413 16.1483C24.0573 16.1483 22.611 17.5685 22.611 19.3205C22.611 21.0724 24.0573 22.4926 25.8413 22.4926Z" fill="#096CFE"/>
<path d="M25.8413 19.0328C27.6255 19.0328 29.0718 17.6126 29.0718 15.8606C29.0718 14.1087 27.6255 12.6885 25.8413 12.6885C24.0573 12.6885 22.611 14.1087 22.611 15.8606C22.611 17.6126 24.0573 19.0328 25.8413 19.0328Z" fill="#096CFE"/>
<path d="M22.6125 19.321H29.0733V15.8604H22.6125V19.321Z" fill="#096CFE"/>
</svg>
