<svg width="100" height="38" viewBox="0 0 100 38" fill="none" xmlns="http://www.w3.org/2000/svg">
<g clip-path="url(#clip0_1229_2337)">
<path d="M51.6281 12.3009L56.3857 11.9934C56.4942 12.7713 56.6932 13.3501 57.0188 13.7662C57.5434 14.4174 58.267 14.7431 59.2258 14.7431C59.9313 14.7431 60.492 14.5802 60.8719 14.2365C61.2337 13.9652 61.4508 13.531 61.4508 13.0788C61.4508 12.6446 61.2518 12.2286 60.9081 11.9572C60.5463 11.6316 59.6961 11.306 58.3575 11.0166C56.1686 10.5282 54.5948 9.87692 53.6722 9.04479C52.7496 8.26693 52.225 7.12728 52.2612 5.91527C52.2612 5.08314 52.5145 4.25101 52.9848 3.5636C53.5275 2.78574 54.2692 2.17069 55.1556 1.82699C56.1143 1.41092 57.453 1.19385 59.1353 1.19385C61.1975 1.19385 62.7714 1.57373 63.8567 2.35159C64.9421 3.11136 65.5934 4.34146 65.7923 6.02381L61.089 6.29515C60.9624 5.57156 60.7091 5.04696 60.2931 4.70326C59.877 4.35955 59.3343 4.19674 58.6288 4.19674C58.0499 4.19674 57.6158 4.32337 57.3263 4.55854C57.055 4.77561 56.8741 5.10123 56.8922 5.46302C56.8922 5.73437 57.0369 5.98763 57.254 6.15043C57.4892 6.36751 58.0499 6.5665 58.9363 6.7474C61.1252 7.21773 62.6809 7.68806 63.6397 8.17649C64.5984 8.66491 65.2858 9.26187 65.7019 9.96737C66.136 10.691 66.3531 11.5231 66.335 12.3733C66.335 13.3863 66.0456 14.3994 65.4667 15.2496C64.8698 16.136 64.0376 16.8234 63.0608 17.2394C62.0297 17.6917 60.7272 17.9268 59.1715 17.9268C56.4219 17.9268 54.5224 17.4022 53.4551 16.335C52.3878 15.2677 51.7547 13.929 51.6281 12.3009ZM1.13965 17.6555V1.48328H9.47902C11.0166 1.48328 12.2106 1.60991 13.0246 1.88126C13.8206 2.13451 14.5261 2.65912 14.9964 3.36462C15.521 4.14247 15.7742 5.04696 15.7562 5.98763C15.8104 7.57952 14.9964 9.09906 13.6035 9.89501C13.0608 10.2025 12.4638 10.4196 11.8488 10.5281C12.301 10.6548 12.7533 10.8719 13.1512 11.1251C13.4588 11.3784 13.712 11.6678 13.9472 11.9753C14.2185 12.2829 14.4537 12.6266 14.6527 12.9884L17.0767 17.6736H11.3965L8.71925 12.6989C8.37554 12.0658 8.08611 11.6497 7.81476 11.4507C7.45297 11.1975 7.01881 11.0708 6.58466 11.0708H6.15051V17.6374H1.13965V17.6555ZM6.15051 8.03177H8.267C8.71925 7.99559 9.1534 7.92323 9.58755 7.81469C9.91317 7.76042 10.2026 7.57952 10.4016 7.30818C10.89 6.65695 10.8177 5.73437 10.2207 5.17359C9.89508 4.90224 9.26194 4.75752 8.35745 4.75752H6.15051V8.03177ZM0 31.5122L4.7576 31.2047C4.86614 31.9826 5.06512 32.5614 5.39074 32.9775C5.89725 33.6287 6.63893 33.9724 7.59769 33.9724C8.30318 33.9724 8.86397 33.8096 9.24385 33.4659C9.60564 33.1765 9.82272 32.7604 9.82272 32.3082C9.82272 31.874 9.62373 31.458 9.28003 31.1866C8.91823 30.861 8.06802 30.5354 6.71129 30.246C4.52243 29.7575 2.94863 29.1063 2.02605 28.2742C1.10347 27.4963 0.578871 26.3567 0.615051 25.1447C0.615051 24.3125 0.868307 23.4804 1.33864 22.793C1.88133 22.0151 2.62301 21.4001 3.50941 21.0564C4.46816 20.6403 5.8068 20.4232 7.48915 20.4232C9.55138 20.4232 11.1252 20.8031 12.2106 21.581C13.2959 22.3588 13.9291 23.5708 14.1281 25.2532L9.42475 25.5245C9.29812 24.8009 9.04486 24.2763 8.6288 23.9326C8.23083 23.5889 7.67004 23.4261 6.96454 23.4442C6.38567 23.4442 5.95152 23.5708 5.66208 23.8241C5.37265 24.0412 5.20984 24.3668 5.22793 24.7286C5.22793 24.9999 5.37265 25.2532 5.58973 25.416C5.82489 25.6331 6.38567 25.8321 7.27207 26.013C9.46093 26.4833 11.0166 26.9536 11.9754 27.442C12.9342 27.9305 13.6216 28.5274 14.0376 29.2329C14.4718 29.9565 14.6889 30.7886 14.6889 31.6208C14.6889 32.6338 14.3813 33.6287 13.8206 34.479C13.2236 35.3654 12.3915 36.0528 11.4146 36.4688C10.3835 36.9211 9.08104 37.1562 7.52533 37.1562C4.77569 37.1562 2.87627 36.6316 1.80897 35.5643C0.741679 34.479 0.144718 33.1403 0 31.5122H0Z" fill="#AFB0B9"/>
<path d="M24.0593 30.2461L28.437 31.5666C28.2019 32.6701 27.7134 33.7193 27.0441 34.6419C26.4291 35.4559 25.615 36.089 24.6925 36.5051C23.7518 36.9212 22.5579 37.1382 21.1107 37.1382C19.356 37.1382 17.9088 36.885 16.8053 36.3785C15.6838 35.872 14.725 34.9675 13.911 33.6831C13.0969 32.3987 12.699 30.7526 12.699 28.7446C12.699 26.0673 13.4045 24.0051 14.8336 22.576C16.2627 21.1469 18.2706 20.4233 20.8755 20.4233C22.9197 20.4233 24.5116 20.8394 25.6874 21.6534C26.8451 22.4856 27.7134 23.7518 28.2923 25.4523L23.8784 26.4291C23.7699 26.0492 23.6071 25.6694 23.39 25.3437C23.1187 24.9639 22.775 24.6744 22.3589 24.4573C21.9428 24.2403 21.4725 24.1498 21.0022 24.1498C19.8625 24.1498 18.9942 24.6021 18.3972 25.5246C17.945 26.194 17.7098 27.2613 17.7098 28.7084C17.7098 30.4993 17.9812 31.7294 18.5239 32.3987C19.0666 33.0681 19.8263 33.3937 20.8213 33.3937C21.78 33.3937 22.5036 33.1223 22.992 32.5977C23.4804 32.0369 23.8422 31.2591 24.0593 30.2461ZM34.28 20.6947H39.2728V26.3568H44.7359V20.6947H49.7648V36.8669H44.7359V30.3184H39.2728V36.8669H34.28V20.6947Z" fill="#AFB0B9"/>
<path d="M49.0774 28.7808C49.0774 26.1397 49.8191 24.0775 51.2844 22.6122C52.7496 21.147 54.8119 20.4053 57.4349 20.4053C60.1302 20.4053 62.1925 21.1289 63.6577 22.576C65.123 24.0232 65.8466 26.0493 65.8466 28.6542C65.8466 30.5536 65.521 32.0912 64.8878 33.3032C64.2728 34.4972 63.314 35.474 62.1382 36.1252C60.9262 36.7946 59.4247 37.1383 57.6339 37.1383C55.8068 37.1383 54.3054 36.8488 53.1114 36.27C51.8813 35.6549 50.8683 34.6962 50.199 33.5203C49.4573 32.254 49.0774 30.6802 49.0774 28.7808ZM54.0702 28.7989C54.0702 30.427 54.3777 31.6028 54.9747 32.3264C55.5716 33.0319 56.4038 33.3937 57.453 33.3937C58.5203 33.3937 59.3524 33.05 59.9493 32.3445C60.5463 31.639 60.8357 30.3908 60.8357 28.5818C60.8357 27.0623 60.5282 25.9407 59.9132 25.2533C59.2981 24.5478 58.466 24.2041 57.4168 24.2041C56.4942 24.1679 55.6078 24.5659 54.9928 25.2714C54.3777 25.9769 54.0702 27.1527 54.0702 28.7989ZM70.966 28.7808C70.966 26.1397 71.7077 24.0775 73.1729 22.6122C74.6382 21.147 76.7004 20.4053 79.3234 20.4053C82.0188 20.4053 84.0991 21.1289 85.5463 22.576C86.9935 24.0232 87.7352 26.0493 87.7352 28.6542C87.7352 30.5536 87.4096 32.0912 86.7764 33.3032C86.1614 34.4972 85.2026 35.474 84.0268 36.1252C82.8148 36.7946 81.3133 37.1383 79.5224 37.1383C77.6954 37.1383 76.1939 36.8488 75 36.27C73.7699 35.6549 72.7569 34.6962 72.0876 33.5203C71.3459 32.254 70.966 30.6802 70.966 28.7808ZM75.9588 28.7989C75.9588 30.427 76.2663 31.6028 76.8632 32.3264C77.4602 33.0319 78.2923 33.3937 79.3415 33.3937C80.4088 33.3937 81.241 33.05 81.8379 32.3445C82.4349 31.639 82.7243 30.3908 82.7243 28.5818C82.7243 27.0623 82.4168 25.9407 81.8017 25.2533C81.1867 24.5478 80.3546 24.2041 79.3054 24.2041C78.3828 24.1679 77.4783 24.5659 76.8813 25.2714C76.2663 25.9769 75.9588 27.1527 75.9588 28.7989Z" fill="#AFB0B9"/>
<path d="M87.2106 20.6946H92.2033V32.8871H100V36.8668H87.1925V20.6946H87.2106Z" fill="#AFB0B9"/>
<path d="M81.7074 19.7613C86.734 15.9733 88.2841 9.55208 85.1695 5.41905C82.055 1.28603 75.4552 1.00632 70.4285 4.79431C65.4019 8.5823 63.8519 15.0036 66.9664 19.1366C70.081 23.2696 76.6807 23.5493 81.7074 19.7613Z" stroke="#AFB0B9" stroke-width="2" stroke-miterlimit="10"/>
<path d="M81.7074 19.7613C86.734 15.9733 88.2841 9.55208 85.1695 5.41905C82.055 1.28603 75.4552 1.00632 70.4285 4.79431C65.4019 8.5823 63.8519 15.0036 66.9664 19.1366C70.081 23.2696 76.6807 23.5493 81.7074 19.7613Z" stroke="#AFB0B9" stroke-width="2" stroke-miterlimit="10"/>
<path d="M81.7074 19.7613C86.734 15.9733 88.2841 9.55208 85.1695 5.41905C82.055 1.28603 75.4552 1.00632 70.4285 4.79431C65.4019 8.5823 63.8519 15.0036 66.9664 19.1366C70.081 23.2696 76.6807 23.5493 81.7074 19.7613Z" stroke="#AFB0B9" stroke-width="2" stroke-miterlimit="10"/>
<path d="M70.984 11.089L72.793 9.82274L75.018 12.9884C75.3979 13.495 75.6874 14.0377 75.9044 14.6346C76.0311 15.0869 75.9949 15.5753 75.814 16.0094C75.5788 16.5521 75.1989 17.0044 74.6924 17.33C74.0955 17.746 73.5889 17.9812 73.1548 18.0536C72.7387 18.1259 72.3046 18.0536 71.9066 17.8727C71.4725 17.6556 71.0926 17.3481 70.8031 16.9501L72.3588 15.5029C72.4855 15.7019 72.6483 15.8828 72.8292 16.0275C72.9558 16.118 73.1005 16.1722 73.2633 16.1722C73.39 16.1722 73.5166 16.118 73.607 16.0456C73.7879 15.9371 73.9146 15.72 73.8965 15.5029C73.8422 15.1954 73.7156 14.8879 73.5166 14.6527L70.984 11.089ZM76.4109 13.097L78.0571 11.7945C78.238 12.0116 78.4732 12.1744 78.7264 12.2649C79.0882 12.3734 79.4681 12.301 79.7756 12.0659C79.9927 11.9212 80.1736 11.7222 80.246 11.4689C80.3545 11.1433 80.1736 10.7815 79.848 10.673C79.7937 10.6549 79.7395 10.6368 79.6852 10.6368C79.4681 10.6187 79.0882 10.7091 78.5274 10.9443C77.6049 11.3242 76.8813 11.4689 76.3386 11.4146C75.814 11.3604 75.3256 11.089 75.0361 10.6368C74.819 10.3293 74.7105 9.96746 74.6924 9.60567C74.6924 9.1896 74.801 8.77354 75.0361 8.42983C75.3798 7.94141 75.7959 7.52535 76.3024 7.19973C77.0622 6.67513 77.7315 6.42188 78.3104 6.42188C78.8892 6.42188 79.4319 6.69322 79.9384 7.254L78.3104 8.53837C77.9848 8.12231 77.3697 8.03186 76.9536 8.35748L76.8994 8.41174C76.7185 8.52028 76.5918 8.68309 76.5195 8.88208C76.4652 9.0268 76.5014 9.1896 76.5918 9.31623C76.6642 9.40668 76.7727 9.47904 76.8994 9.47904C77.0441 9.49713 77.2973 9.42477 77.6591 9.26196C78.5636 8.88208 79.251 8.665 79.7214 8.59264C80.1193 8.52028 80.5354 8.55646 80.9153 8.71927C81.259 8.86399 81.5484 9.11724 81.7474 9.42477C82.0007 9.78656 82.1454 10.2207 82.1635 10.673C82.1816 11.1433 82.0549 11.5955 81.8017 11.9935C81.4761 12.4819 81.06 12.898 80.5716 13.2236C79.5766 13.911 78.7626 14.2005 78.1114 14.0919C77.4059 13.9834 76.827 13.6216 76.4109 13.097Z" fill="#AFB0B9"/>
</g>
<defs>
<clipPath id="clip0_1229_2337">
<rect width="100" height="37.1382" fill="white"/>
</clipPath>
</defs>
</svg>
