<svg width="20" height="20" viewBox="0 0 20 20" fill="none" xmlns="http://www.w3.org/2000/svg">
<rect width="20" height="20" rx="10" fill="#AFB0B9"/>
<path fill-rule="evenodd" clip-rule="evenodd" d="M11.7143 5.71429C11.2409 5.71429 10.8571 5.33053 10.8571 4.85714C10.8571 4.38376 11.2409 4 11.7143 4H15.1427C15.2589 4 15.3699 4.02313 15.471 4.06504C15.5713 4.10656 15.6654 4.16796 15.7471 4.24924L15.7508 4.25287C15.832 4.33463 15.8934 4.42869 15.935 4.52904C15.978 4.63303 15.9997 4.74378 16 4.85457L16 4.85714V8.28571C16 8.7591 15.6162 9.14286 15.1429 9.14286C14.6695 9.14286 14.2857 8.7591 14.2857 8.28571V6.92647L12.3204 8.89181C11.9856 9.22654 11.4429 9.22654 11.1082 8.89181C10.7735 8.55707 10.7735 8.01436 11.1082 7.67962L13.0735 5.71429H11.7143ZM4 11.7143C4 11.2409 4.38376 10.8571 4.85714 10.8571C5.33053 10.8571 5.71429 11.2409 5.71429 11.7143V13.0735L7.67962 11.1082C8.01436 10.7735 8.55707 10.7735 8.89181 11.1082C9.22654 11.4429 9.22654 11.9856 8.89181 12.3204L6.92647 14.2857H8.28571C8.7591 14.2857 9.14286 14.6695 9.14286 15.1429C9.14286 15.6162 8.7591 16 8.28571 16H4.85774L4.85457 16C4.73929 15.9997 4.62936 15.9766 4.52904 15.935C4.42509 15.8919 4.33145 15.8289 4.25287 15.7508L4.24924 15.7471C4.16796 15.6654 4.10656 15.5713 4.06504 15.471C4.02313 15.3699 4 15.2591 4 15.1429V11.7143Z" fill="white"/>
</svg>
