<svg width="14" height="14" viewBox="0 0 14 14" fill="none" xmlns="http://www.w3.org/2000/svg">
<path fill-rule="evenodd" clip-rule="evenodd" d="M7 0C7.3713 0 7.7274 0.1475 7.98995 0.410051C8.2525 0.672602 8.4 1.0287 8.4 1.4V5.6H12.6C12.9713 5.6 13.3274 5.7475 13.5899 6.01005C13.8525 6.2726 14 6.6287 14 7C14 7.3713 13.8525 7.7274 13.5899 7.98995C13.3274 8.2525 12.9713 8.4 12.6 8.4H8.4V12.6C8.4 12.9713 8.2525 13.3274 7.98995 13.5899C7.7274 13.8525 7.3713 14 7 14C6.6287 14 6.2726 13.8525 6.01005 13.5899C5.7475 13.3274 5.6 12.9713 5.6 12.6V8.4H1.4C1.0287 8.4 0.672602 8.2525 0.410051 7.98995C0.1475 7.7274 0 7.3713 0 7C0 6.6287 0.1475 6.2726 0.410051 6.01005C0.672602 5.7475 1.0287 5.6 1.4 5.6H5.6V1.4C5.6 1.0287 5.7475 0.672602 6.01005 0.410051C6.2726 0.1475 6.6287 0 7 0Z" fill="#503AE7"/>
</svg>
