<svg width="34" height="34" viewBox="0 0 34 34" fill="none" xmlns="http://www.w3.org/2000/svg">
<rect width="34" height="34" rx="17" fill="#FF3D3D"/>
<path fill-rule="evenodd" clip-rule="evenodd" d="M16 10C16 9.73478 16.1054 9.48043 16.2929 9.29289C16.4804 9.10536 16.7348 9 17 9C17.2652 9 17.5196 9.10536 17.7071 9.29289C17.8946 9.48043 18 9.73478 18 10V15.5C18 15.6326 18.0527 15.7598 18.1464 15.8536C18.2402 15.9473 18.3674 16 18.5 16C18.6326 16 18.7598 15.9473 18.8536 15.8536C18.9473 15.7598 19 15.6326 19 15.5V11C19 10.7348 19.1054 10.4804 19.2929 10.2929C19.4804 10.1054 19.7348 10 20 10C20.2652 10 20.5196 10.1054 20.7071 10.2929C20.8946 10.4804 21 10.7348 21 11V15.5C21 15.6326 21.0527 15.7598 21.1464 15.8536C21.2402 15.9473 21.3674 16 21.5 16C21.6326 16 21.7598 15.9473 21.8536 15.8536C21.9473 15.7598 22 15.6326 22 15.5V13C22 12.7348 22.1054 12.4804 22.2929 12.2929C22.4804 12.1054 22.7348 12 23 12C23.2652 12 23.5196 12.1054 23.7071 12.2929C23.8946 12.4804 24 12.7348 24 13V18C24 18.9193 23.8189 19.8295 23.4672 20.6788C23.1154 21.5281 22.5998 22.2997 21.9497 22.9497C21.2997 23.5998 20.5281 24.1154 19.6788 24.4672C18.8295 24.8189 17.9193 25 17 25C16.0807 25 15.1705 24.8189 14.3212 24.4672C13.4719 24.1154 12.7003 23.5998 12.0503 22.9497C11.4002 22.2997 10.8846 21.5281 10.5328 20.6788C10.1811 19.8295 10 18.9193 10 18V16C10 15.7348 10.1054 15.4804 10.2929 15.2929C10.4804 15.1054 10.7348 15 11 15C11.2652 15 11.5196 15.1054 11.7071 15.2929C11.8946 15.4804 12 15.7348 12 16V18.5C12 18.6326 12.0527 18.7598 12.1464 18.8536C12.2402 18.9473 12.3674 19 12.5 19C12.6326 19 12.7598 18.9473 12.8536 18.8536C12.9473 18.7598 13 18.6326 13 18.5V11C13 10.7348 13.1054 10.4804 13.2929 10.2929C13.4804 10.1054 13.7348 10 14 10C14.2652 10 14.5196 10.1054 14.7071 10.2929C14.8946 10.4804 15 10.7348 15 11V15.5C15 15.6326 15.0527 15.7598 15.1464 15.8536C15.2402 15.9473 15.3674 16 15.5 16C15.6326 16 15.7598 15.9473 15.8536 15.8536C15.9473 15.7598 16 15.6326 16 15.5V10Z" fill="white"/>
</svg>
